<svg height="670" width="720" xmlns="http://www.w3.org/2000/svg">
<rect height="670" fill="#555" width="720"></rect>
<text fill="#7f7" font-family="Courier New" font-size="12" xml:space="preserve">
<tspan x="10" y="26">└─┬ lodash-cli@4.17.4 </tspan>
<tspan x="10" y="42">  ├─┬ closure-compiler@0.2.12 </tspan>
<tspan x="10" y="58">  │ └── google-closure-compiler@20150901.0.0 </tspan>
<tspan x="10" y="74">  ├─┬ glob@7.1.1 </tspan>
<tspan x="10" y="90">  │ ├── fs.realpath@1.0.0 </tspan>
<tspan x="10" y="106">  │ ├─┬ inflight@1.0.6 </tspan>
<tspan x="10" y="122">  │ │ └── wrappy@1.0.2 </tspan>
<tspan x="10" y="138">  │ ├── inherits@2.0.3 </tspan>
<tspan x="10" y="154">  │ ├─┬ minimatch@3.0.3 </tspan>
<tspan x="10" y="170">  │ │ └─┬ brace-expansion@1.1.6 </tspan>
<tspan x="10" y="186">  │ │   ├── balanced-match@0.4.2 </tspan>
<tspan x="10" y="202">  │ │   └── concat-map@0.0.1 </tspan>
<tspan x="10" y="218">  │ ├─┬ once@1.4.0 </tspan>
<tspan x="10" y="234">  │ │ └── wrappy@1.0.2 </tspan>
<tspan x="10" y="250">  │ └── path-is-absolute@1.0.1 </tspan>
<tspan x="10" y="266">  ├── lodash@4.17.4 </tspan>
<tspan x="10" y="282">  ├── semver@5.3.0 </tspan>
<tspan x="10" y="298">  └─┬ uglify-js@2.7.5 </tspan>
<tspan x="10" y="314">    ├── async@0.2.10 </tspan>
<tspan x="10" y="330">    ├── source-map@0.5.6 </tspan>
<tspan x="10" y="346">    ├── uglify-to-browserify@1.0.2 </tspan>
<tspan x="10" y="362">    └─┬ yargs@3.10.0 </tspan>
<tspan x="10" y="378">      ├── camelcase@1.2.1 </tspan>
<tspan x="10" y="394">      ├─┬ cliui@2.1.0 </tspan>
<tspan x="10" y="410">      │ ├─┬ center-align@0.1.3 </tspan>
<tspan x="10" y="426">      │ │ ├─┬ align-text@0.1.4 </tspan>
<tspan x="10" y="442">      │ │ │ ├─┬ kind-of@3.1.0 </tspan>
<tspan x="10" y="458">      │ │ │ │ └── is-buffer@1.1.4 </tspan>
<tspan x="10" y="474">      │ │ │ ├── longest@1.0.1 </tspan>
<tspan x="10" y="490">      │ │ │ └── repeat-string@1.6.1 </tspan>
<tspan x="10" y="506">      │ │ └── lazy-cache@1.0.4 </tspan>
<tspan x="10" y="522">      │ ├─┬ right-align@0.1.3 </tspan>
<tspan x="10" y="538">      │ │ └─┬ align-text@0.1.4 </tspan>
<tspan x="10" y="554">      │ │   ├─┬ kind-of@3.1.0 </tspan>
<tspan x="10" y="570">      │ │   │ └── is-buffer@1.1.4 </tspan>
<tspan x="10" y="586">      │ │   ├── longest@1.0.1 </tspan>
<tspan x="10" y="602">      │ │   └── repeat-string@1.6.1 </tspan>
<tspan x="10" y="618">      │ └── wordwrap@0.0.2 </tspan>
<tspan x="10" y="634">      ├── decamelize@1.2.0 </tspan>
<tspan x="10" y="650">      └── window-size@0.1.0</tspan>
</text>
</svg>
